<svg xmlns="http://www.w3.org/2000/svg" viewBox="0 0 512 512">
  <style>
    .logo-fill { fill: #002830; }
    .logo-border { fill: #00d4f5; }
    .logo-bolt { fill: #66e3ff; }
  </style>
  <!-- Shield fill (solid background) -->
  <path class="logo-fill" d="M256 28L60 130v152c0 110.6 83.5 214 196 240 112.5-26 196-129.4 196-240V130L256 28z"/>
  <!-- Shield border -->
  <path class="logo-border" d="M256 28L60 130v152c0 110.6 83.5 214 196 240 112.5-26 196-129.4 196-240V130L256 28zM256 444c-97.3-24.4-172-115.2-172-212V148.6L256 56.8l172 91.8V232c0 96.8-74.7 187.6-172 212z"/>
  <!-- Lightning bolt -->
  <path class="logo-bolt" d="M288 108L176 284h72l-32 120 128-192h-80l24-104z"/>
</svg>
